Coordinates
version=1
nRows=26
nColumns=24
inDegrees=yes

Units are S.I. units (second, meters, Newtons, ...)
Angles are in degrees.

endheader
time	pelvis_tilt	pelvis_list	pelvis_rotation	pelvis_tx	pelvis_ty	pelvis_tz	hip_flexion_r	hip_adduction_r	hip_rotation_r	knee_angle_r	ankle_angle_r	subtalar_angle_r	mtp_angle_r	hip_flexion_l	hip_adduction_l	hip_rotation_l	knee_angle_l	ankle_angle_l	subtalar_angle_l	mtp_angle_l	lumbar_extension	lumbar_bending	lumbar_rotation
      0.70500000	     -6.15407685	      1.93833973	      3.41379186	     -0.41920128	      1.06052727	      0.27449457	     17.86933636	      1.09913194	     -2.54493626	    -23.73092795	     12.82993159	     -6.10553845	      3.82744768	     25.15558967	     -2.43697954	     -6.10527846	    -69.99549753	      9.11340734	      5.64083043	      3.05535432	    -11.52520901	      0.59379924	      0.05165755
      0.70916667	     -6.07841672	      2.04214691	      3.31362811	     -0.41408222	      1.06167923	      0.27476274	     17.29496107	      1.03836544	     -2.48457967	    -23.33417429	     12.90664065	     -5.99647061	      3.81172940	     25.51031200	     -2.33894494	     -6.27286079	    -69.32482655	      9.36165959	      5.93098285	      3.08624990	    -11.67392711	      0.43553739	      0.32690659
      0.71333333	     -6.04441917	      2.15551400	      3.20652171	     -0.40893656	      1.06272816	      0.27502912	     16.76921962	      0.96280266	     -2.42629953	    -22.94467995	     12.91795001	     -5.89456523	      3.80141417	     25.88961041	     -2.22987864	     -6.45561689	    -68.59618479	      9.59670577	      6.17598794	      3.10947568	    -11.75740051	      0.26715571	      0.48450115
      0.71750000	     -5.99643803	      2.26514601	      3.08825954	     -0.40379462	      1.06375819	      0.27530688	     16.22896410	      0.89200790	     -2.36648963	    -22.55187276	     12.94384584	     -5.78549702	      3.79363153	     26.23704225	     -2.13356596	     -6.65610970	    -67.81676073	      9.82285956	      6.40986167	      3.13093437	    -11.85386484	      0.08871208	      0.66165681
      0.72166667	     -5.93591686	      2.34977475	      2.96997679	     -0.39864429	      1.06476271	      0.27557445	     15.66830674	      0.84744804	     -2.31141288	    -22.14088788	     12.99944842	     -5.68241719	      3.78184967	     26.55980790	     -2.06459272	     -6.84949786	    -66.99578638	     10.03024526	      6.61563869	      3.16252881	    -11.96350107	     -0.07312491	      0.95238476
      0.72583333	     -5.91436867	      2.45415435	      2.83547295	     -0.39350491	      1.06565151	      0.27584616	     15.16529662	      0.77861858	     -2.24269510	    -21.75980868	     13.01068602	     -5.57262077	      3.77513008	     26.90180186	     -1.97466420	     -7.06160161	    -66.11403489	     10.22985387	      6.81309397	      3.18312641	    -12.02385844	     -0.22727207	      1.10845982
      0.73000000	     -5.85615256	      2.53739705	      2.70298591	     -0.38836284	      1.06656495	      0.27610799	     14.61228317	      0.73233784	     -2.18128351	    -21.35255940	     13.05901821	     -5.46635087	      3.76727990	     27.19127196	     -1.90887732	     -7.26698451	    -65.18971857	     10.41485966	      6.98275361	      3.20933170	    -12.12920247	     -0.38968482	      1.36644791
      0.73416667	     -5.83440325	      2.64226491	      2.55557819	     -0.38321437	      1.06738336	      0.27637079	     14.11161606	      0.65884655	     -2.10899074	    -20.97124548	     13.05902654	     -5.34761760	      3.76327112	     27.49323585	     -1.81831216	     -7.48659428	    -64.19897018	     10.58107723	      7.12660987	      3.22507791	    -12.18666305	     -0.54663435	      1.51377325
      0.73833333	     -5.79534202	      2.71499076	      2.41772090	     -0.37807687	      1.06814907	      0.27661499	     13.58588556	      0.61825940	     -2.05020141	    -20.57364461	     13.12276415	     -5.22947365	      3.75835772	     27.77189806	     -1.75960662	     -7.68787131	    -63.18181307	     10.73715801	      7.25014725	      3.24889288	    -12.26676410	     -0.69837099	      1.79963450
      0.74250000	     -5.78932628	      2.80134098	      2.26764721	     -0.37293260	      1.06883172	      0.27685771	     13.10719083	      0.55935812	     -1.97953073	    -20.19805527	     13.12577455	     -5.11134875	      3.75565968	     28.05977180	     -1.68401481	     -7.89605694	    -62.10020759	     10.87047047	      7.34968610	      3.26143308	    -12.30011489	     -0.82653355	      1.94033874
      0.74666667	     -5.75305028	      2.86576626	      2.12523080	     -0.36780146	      1.06949580	      0.27708410	     12.58933763	      0.52269592	     -1.91797214	    -19.80605321	     13.18661217	     -4.98592356	      3.75283137	     28.30564237	     -1.62745250	     -8.08321102	    -60.98482193	     10.99272746	      7.42504361	      3.28243472	    -12.38062352	     -0.96820968	      2.22180308
      0.75083333	     -5.72535666	      2.93437947	      1.97729266	     -0.36266185	      1.07011195	      0.27730985	     12.08582940	      0.47892751	     -1.85666366	    -19.42419499	     13.22472287	     -4.87424796	      3.75048549	     28.53705984	     -1.56624058	     -8.27615762	    -59.81258046	     11.08702907	      7.47903517	      3.29943868	    -12.43535790	     -1.09526839	      2.41839293
      0.75500000	     -5.71048173	      2.99466272	      1.83093353	     -0.35752665	      1.07064298	      0.27751426	     11.60033414	      0.43985774	     -1.79956360	    -19.04925668	     13.26295085	     -4.75714032	      3.74928576	     28.76650344	     -1.50716598	     -8.45452629	    -58.59649883	     11.16383272	      7.51154386	      3.31434610	    -12.47535802	     -1.21177121	      2.61067235
      0.75916667	     -5.71074850	      3.04643447	      1.68794339	     -0.35240780	      1.07108354	      0.27770396	     11.13507264	      0.40697438	     -1.74312208	    -18.67988901	     13.30431485	     -4.63593388	      3.74901842	     28.99802540	     -1.45060769	     -8.61653764	    -57.33903892	     11.21803238	      7.51970712	      3.32886168	    -12.50386265	     -1.31635958	      2.80380480
      0.76333333	     -5.72148053	      3.08965133	      1.54446090	     -0.34729093	      1.07145736	      0.27787924	     10.68483686	      0.38050433	     -1.68485525	    -18.31630413	     13.32343626	     -4.51958079	      3.74910625	     29.22172279	     -1.39783249	     -8.76641435	    -56.03383726	     11.24991838	      7.52154864	      3.33877850	    -12.51558843	     -1.40146220	      2.95427042
      0.76750000	     -5.75992537	      3.12402710	      1.40775579	     -0.34216728	      1.07171271	      0.27804422	     10.26651440	      0.36117893	     -1.63091321	    -17.95912351	     13.36515843	     -4.40438759	      3.74999625	     29.45987185	     -1.34675462	     -8.89431206	    -54.69007088	     11.25784403	      7.49384648	      3.34722680	    -12.49257442	     -1.48417500	      3.11485545
      0.77166667	     -5.76994049	      3.14820647	      1.27474786	     -0.33705401	      1.07198087	      0.27818651	      9.81624300	      0.34952810	     -1.58238212	    -17.59703174	     13.41194211	     -4.29013081	      3.75143541	     29.64738909	     -1.29889462	     -9.00257171	    -53.29701442	     11.23822257	      7.44224090	      3.35679633	    -12.50608250	     -1.55244616	      3.29661367
      0.77583333	     -5.79663425	      3.16716811	      1.14763720	     -0.33194655	      1.07214273	      0.27831742	      9.38808920	      0.34120228	     -1.53900373	    -17.24475373	     13.46590686	     -4.17260469	      3.75329163	     29.83696310	     -1.25018101	     -9.09492354	    -51.86533352	     11.20193569	      7.38104655	      3.36589133	    -12.49852026	     -1.61433437	      3.45645731
      0.78000000	     -5.83758175	      3.17097943	      1.02654774	     -0.32683671	      1.07222975	      0.27841919	      8.97513231	      0.34589018	     -1.49813348	    -16.89253737	     13.52154537	     -4.05855203	      3.75534856	     30.02401253	     -1.20767844	     -9.16142228	    -50.39182715	     11.13990199	      7.29836308	      3.37568098	    -12.47460219	     -1.65630696	      3.61846598
      0.78416667	     -5.88194974	      3.15973948	      0.91071869	     -0.32172610	      1.07225519	      0.27850644	      8.56558814	      0.36540324	     -1.45886004	    -16.54137278	     13.57732196	     -3.95130091	      3.75727988	     30.19756068	     -1.17306180	     -9.20292646	    -48.88031100	     11.05851273	      7.20334814	      3.38635722	    -12.44292292	     -1.67980576	      3.77535107
      0.78833333	     -5.91200536	      3.14689900	      0.80184587	     -0.31662651	      1.07224557	      0.27858037	      8.14184099	      0.38447648	     -1.42558765	    -16.19356883	     13.64073552	     -3.84484111	      3.75907235	     30.33552200	     -1.13236250	     -9.22371289	    -47.32283873	     10.95507607	      7.09575978	      3.39864873	    -12.43001013	     -1.69912648	      3.92358386
      0.79250000	     -5.98699153	      3.11763055	      0.70285806	     -0.31150961	      1.07208946	      0.27862188	      7.76582381	      0.41869044	     -1.39479400	    -15.84853229	     13.70435884	     -3.74072501	      3.76074913	     30.50688508	     -1.09881339	     -9.21800176	    -45.73562869	     10.83502350	      6.98372158	      3.41131716	    -12.36489124	     -1.69720639	      4.05618949
      0.79666667	     -6.04536300	      3.08398803	      0.60705523	     -0.30640124	      1.07191855	      0.27865126	      7.37333779	      0.45586981	     -1.36572878	    -15.50733716	     13.77097106	     -3.64182478	      3.76192542	     30.63773651	     -1.06307053	     -9.19115531	    -44.10229763	     10.69369932	      6.86055045	      3.42490041	    -12.31895663	     -1.68268378	      4.18104236
      0.80083333	     -6.11662688	      3.03822170	      0.51954503	     -0.30128597	      1.07165826	      0.27866215	      6.99400080	      0.50496812	     -1.34121104	    -15.16770569	     13.84046165	     -3.54497676	      3.76248781	     30.76539874	     -1.03086439	     -9.13489072	    -42.43616222	     10.53570657	      6.73241508	      3.43948037	    -12.25529513	     -1.65845778	      4.29740573
      0.80500000	     -6.19691825	      2.99131508	      0.43523122	     -0.29615899	      1.07133542	      0.27865637	      6.62617391	      0.55330890	     -1.31617912	    -14.83676274	     13.91998075	     -3.44829359	      3.76249128	     30.87954791	     -0.99277838	     -9.05739811	    -40.72699813	     10.36183108	      6.59649881	      3.45585501	    -12.17887262	     -1.62800638	      4.40169700
      0.80916667	     -6.26127841	      2.91964396	      0.36490398	     -0.29103869	      1.07097171	      0.27860550	      6.23259216	      0.62623179	     -1.29527813	    -14.48898613	     14.01192632	     -3.34977662	      3.76114973	     30.96492316	     -0.96628055	     -8.93540057	    -38.99878805	     10.18362649	      6.43259018	      3.48315786	    -12.13206333	     -1.56031822	      4.51560152
